<mxfile host="Electron" agent="Mozilla/5.0 (Windows NT 10.0; Win64; x64) AppleWebKit/537.36 (KHTML, like Gecko) draw.io/24.7.5 Chrome/126.0.6478.183 Electron/31.3.0 Safari/537.36" version="24.7.5">
  <diagram name="Page-1" id="8yw0Ucl3Pb3sc9jDOhB9">
    <mxGraphModel dx="1098" dy="820" grid="1" gridSize="10" guides="1" tooltips="1" connect="1" arrows="1" fold="1" page="1" pageScale="1" pageWidth="827" pageHeight="1169" math="0" shadow="0">
      <root>
        <mxCell id="0" />
        <mxCell id="1" parent="0" />
        <mxCell id="L_p2-eAjBIyH1NqiZXeb-3" value="" style="edgeStyle=orthogonalEdgeStyle;rounded=0;orthogonalLoop=1;jettySize=auto;html=1;" parent="1" source="L_p2-eAjBIyH1NqiZXeb-1" target="L_p2-eAjBIyH1NqiZXeb-2" edge="1">
          <mxGeometry relative="1" as="geometry" />
        </mxCell>
        <mxCell id="L_p2-eAjBIyH1NqiZXeb-5" value="" style="edgeStyle=orthogonalEdgeStyle;rounded=0;orthogonalLoop=1;jettySize=auto;html=1;" parent="1" source="L_p2-eAjBIyH1NqiZXeb-1" target="L_p2-eAjBIyH1NqiZXeb-4" edge="1">
          <mxGeometry relative="1" as="geometry" />
        </mxCell>
        <mxCell id="L_p2-eAjBIyH1NqiZXeb-1" value="InputAction" style="shape=hexagon;perimeter=hexagonPerimeter2;whiteSpace=wrap;html=1;fixedSize=1;" parent="1" vertex="1">
          <mxGeometry x="360" y="304" width="120" height="80" as="geometry" />
        </mxCell>
        <mxCell id="L_p2-eAjBIyH1NqiZXeb-7" value="" style="edgeStyle=orthogonalEdgeStyle;rounded=0;orthogonalLoop=1;jettySize=auto;html=1;" parent="1" source="L_p2-eAjBIyH1NqiZXeb-2" target="L_p2-eAjBIyH1NqiZXeb-6" edge="1">
          <mxGeometry relative="1" as="geometry" />
        </mxCell>
        <mxCell id="L_p2-eAjBIyH1NqiZXeb-2" value="Left" style="ellipse;whiteSpace=wrap;html=1;" parent="1" vertex="1">
          <mxGeometry x="180" y="304" width="80" height="80" as="geometry" />
        </mxCell>
        <mxCell id="L_p2-eAjBIyH1NqiZXeb-15" value="" style="edgeStyle=orthogonalEdgeStyle;rounded=0;orthogonalLoop=1;jettySize=auto;html=1;" parent="1" source="L_p2-eAjBIyH1NqiZXeb-4" target="L_p2-eAjBIyH1NqiZXeb-14" edge="1">
          <mxGeometry relative="1" as="geometry" />
        </mxCell>
        <mxCell id="L_p2-eAjBIyH1NqiZXeb-4" value="Right" style="ellipse;whiteSpace=wrap;html=1;" parent="1" vertex="1">
          <mxGeometry x="567" y="304" width="80" height="80" as="geometry" />
        </mxCell>
        <mxCell id="L_p2-eAjBIyH1NqiZXeb-9" value="" style="edgeStyle=orthogonalEdgeStyle;rounded=0;orthogonalLoop=1;jettySize=auto;html=1;" parent="1" source="L_p2-eAjBIyH1NqiZXeb-6" target="L_p2-eAjBIyH1NqiZXeb-8" edge="1">
          <mxGeometry relative="1" as="geometry" />
        </mxCell>
        <mxCell id="L_p2-eAjBIyH1NqiZXeb-13" value="" style="edgeStyle=orthogonalEdgeStyle;rounded=0;orthogonalLoop=1;jettySize=auto;html=1;" parent="1" source="L_p2-eAjBIyH1NqiZXeb-6" target="L_p2-eAjBIyH1NqiZXeb-12" edge="1">
          <mxGeometry relative="1" as="geometry" />
        </mxCell>
        <mxCell id="L_p2-eAjBIyH1NqiZXeb-6" value="Press" style="rhombus;whiteSpace=wrap;html=1;" parent="1" vertex="1">
          <mxGeometry x="180" y="464" width="80" height="80" as="geometry" />
        </mxCell>
        <mxCell id="L_p2-eAjBIyH1NqiZXeb-11" value="" style="edgeStyle=orthogonalEdgeStyle;rounded=0;orthogonalLoop=1;jettySize=auto;html=1;" parent="1" source="L_p2-eAjBIyH1NqiZXeb-8" target="L_p2-eAjBIyH1NqiZXeb-10" edge="1">
          <mxGeometry relative="1" as="geometry" />
        </mxCell>
        <mxCell id="L_p2-eAjBIyH1NqiZXeb-8" value="Canceled" style="rhombus;whiteSpace=wrap;html=1;" parent="1" vertex="1">
          <mxGeometry x="30" y="464" width="80" height="80" as="geometry" />
        </mxCell>
        <mxCell id="L_p2-eAjBIyH1NqiZXeb-31" style="edgeStyle=orthogonalEdgeStyle;rounded=0;orthogonalLoop=1;jettySize=auto;html=1;" parent="1" source="L_p2-eAjBIyH1NqiZXeb-10" edge="1">
          <mxGeometry relative="1" as="geometry">
            <mxPoint x="140" y="714" as="targetPoint" />
            <Array as="points">
              <mxPoint x="60" y="714" />
              <mxPoint x="120" y="714" />
            </Array>
          </mxGeometry>
        </mxCell>
        <mxCell id="L_p2-eAjBIyH1NqiZXeb-10" value="False" style="whiteSpace=wrap;html=1;" parent="1" vertex="1">
          <mxGeometry x="10" y="634" width="120" height="60" as="geometry" />
        </mxCell>
        <mxCell id="L_p2-eAjBIyH1NqiZXeb-12" value="True" style="whiteSpace=wrap;html=1;" parent="1" vertex="1">
          <mxGeometry x="160" y="634" width="120" height="60" as="geometry" />
        </mxCell>
        <mxCell id="L_p2-eAjBIyH1NqiZXeb-17" value="" style="edgeStyle=orthogonalEdgeStyle;rounded=0;orthogonalLoop=1;jettySize=auto;html=1;" parent="1" source="L_p2-eAjBIyH1NqiZXeb-14" target="L_p2-eAjBIyH1NqiZXeb-16" edge="1">
          <mxGeometry relative="1" as="geometry" />
        </mxCell>
        <mxCell id="L_p2-eAjBIyH1NqiZXeb-21" value="" style="edgeStyle=orthogonalEdgeStyle;rounded=0;orthogonalLoop=1;jettySize=auto;html=1;" parent="1" source="L_p2-eAjBIyH1NqiZXeb-14" target="L_p2-eAjBIyH1NqiZXeb-20" edge="1">
          <mxGeometry relative="1" as="geometry" />
        </mxCell>
        <mxCell id="L_p2-eAjBIyH1NqiZXeb-14" value="Press" style="rhombus;whiteSpace=wrap;html=1;" parent="1" vertex="1">
          <mxGeometry x="567" y="464" width="80" height="80" as="geometry" />
        </mxCell>
        <mxCell id="L_p2-eAjBIyH1NqiZXeb-19" value="" style="edgeStyle=orthogonalEdgeStyle;rounded=0;orthogonalLoop=1;jettySize=auto;html=1;" parent="1" source="L_p2-eAjBIyH1NqiZXeb-16" target="L_p2-eAjBIyH1NqiZXeb-18" edge="1">
          <mxGeometry relative="1" as="geometry" />
        </mxCell>
        <mxCell id="L_p2-eAjBIyH1NqiZXeb-16" value="Canceled" style="rhombus;whiteSpace=wrap;html=1;" parent="1" vertex="1">
          <mxGeometry x="720" y="464" width="80" height="80" as="geometry" />
        </mxCell>
        <mxCell id="L_p2-eAjBIyH1NqiZXeb-18" value="False" style="whiteSpace=wrap;html=1;" parent="1" vertex="1">
          <mxGeometry x="700" y="634" width="120" height="60" as="geometry" />
        </mxCell>
        <mxCell id="L_p2-eAjBIyH1NqiZXeb-20" value="True" style="whiteSpace=wrap;html=1;" parent="1" vertex="1">
          <mxGeometry x="547" y="634" width="120" height="60" as="geometry" />
        </mxCell>
        <mxCell id="L_p2-eAjBIyH1NqiZXeb-33" style="edgeStyle=orthogonalEdgeStyle;rounded=0;orthogonalLoop=1;jettySize=auto;html=1;exitX=0.5;exitY=1.031;exitDx=0;exitDy=0;exitPerimeter=0;" parent="1" source="L_p2-eAjBIyH1NqiZXeb-12" edge="1">
          <mxGeometry relative="1" as="geometry">
            <mxPoint x="140" y="714" as="targetPoint" />
            <mxPoint x="140" y="694" as="sourcePoint" />
            <Array as="points">
              <mxPoint x="220" y="714" />
            </Array>
          </mxGeometry>
        </mxCell>
        <mxCell id="L_p2-eAjBIyH1NqiZXeb-34" value="" style="endArrow=classic;html=1;rounded=0;" parent="1" edge="1">
          <mxGeometry width="50" height="50" relative="1" as="geometry">
            <mxPoint x="140" y="714" as="sourcePoint" />
            <mxPoint x="400" y="754" as="targetPoint" />
            <Array as="points">
              <mxPoint x="140" y="754" />
            </Array>
          </mxGeometry>
        </mxCell>
        <mxCell id="L_p2-eAjBIyH1NqiZXeb-38" value="LeftFocus" style="edgeLabel;html=1;align=center;verticalAlign=middle;resizable=0;points=[];" parent="L_p2-eAjBIyH1NqiZXeb-34" vertex="1" connectable="0">
          <mxGeometry x="0.084" relative="1" as="geometry">
            <mxPoint as="offset" />
          </mxGeometry>
        </mxCell>
        <mxCell id="L_p2-eAjBIyH1NqiZXeb-35" style="edgeStyle=orthogonalEdgeStyle;rounded=0;orthogonalLoop=1;jettySize=auto;html=1;" parent="1" edge="1">
          <mxGeometry relative="1" as="geometry">
            <mxPoint x="690" y="714" as="targetPoint" />
            <mxPoint x="610" y="694" as="sourcePoint" />
            <Array as="points">
              <mxPoint x="610" y="714" />
              <mxPoint x="670" y="714" />
            </Array>
          </mxGeometry>
        </mxCell>
        <mxCell id="L_p2-eAjBIyH1NqiZXeb-36" style="edgeStyle=orthogonalEdgeStyle;rounded=0;orthogonalLoop=1;jettySize=auto;html=1;exitX=0.5;exitY=1.031;exitDx=0;exitDy=0;exitPerimeter=0;" parent="1" edge="1">
          <mxGeometry relative="1" as="geometry">
            <mxPoint x="690" y="714" as="targetPoint" />
            <mxPoint x="770" y="696" as="sourcePoint" />
            <Array as="points">
              <mxPoint x="770" y="714" />
            </Array>
          </mxGeometry>
        </mxCell>
        <mxCell id="L_p2-eAjBIyH1NqiZXeb-37" value="" style="endArrow=classic;html=1;rounded=0;" parent="1" edge="1">
          <mxGeometry width="50" height="50" relative="1" as="geometry">
            <mxPoint x="690" y="714" as="sourcePoint" />
            <mxPoint x="440" y="754" as="targetPoint" />
            <Array as="points">
              <mxPoint x="690" y="754" />
            </Array>
          </mxGeometry>
        </mxCell>
        <mxCell id="L_p2-eAjBIyH1NqiZXeb-39" value="RightFocus" style="edgeLabel;html=1;align=center;verticalAlign=middle;resizable=0;points=[];" parent="L_p2-eAjBIyH1NqiZXeb-37" vertex="1" connectable="0">
          <mxGeometry x="0.0938" y="-2" relative="1" as="geometry">
            <mxPoint as="offset" />
          </mxGeometry>
        </mxCell>
        <mxCell id="L_p2-eAjBIyH1NqiZXeb-40" value="" style="endArrow=classic;html=1;rounded=0;" parent="1" edge="1">
          <mxGeometry width="50" height="50" relative="1" as="geometry">
            <mxPoint x="400" y="754" as="sourcePoint" />
            <mxPoint x="400" y="864" as="targetPoint" />
          </mxGeometry>
        </mxCell>
        <mxCell id="L_p2-eAjBIyH1NqiZXeb-41" value="" style="endArrow=classic;html=1;rounded=0;" parent="1" edge="1">
          <mxGeometry width="50" height="50" relative="1" as="geometry">
            <mxPoint x="440" y="754" as="sourcePoint" />
            <mxPoint x="440" y="864" as="targetPoint" />
          </mxGeometry>
        </mxCell>
      </root>
    </mxGraphModel>
  </diagram>
</mxfile>
